<mxfile host="app.diagrams.net" modified="2024-01-24T13:10:24.711Z" agent="Mozilla/5.0 (X11; Linux x86_64) AppleWebKit/537.36 (KHTML, like Gecko) Chrome/115.0.0.0 Safari/537.36" etag="14HAt8aaIDYeb_JCAE9M" version="23.0.0" type="github">
  <diagram name="Page-1" id="d9b1e647-80fa-b4a2-5024-87a742678bcc">
    <mxGraphModel dx="804" dy="491" grid="1" gridSize="10" guides="1" tooltips="1" connect="1" arrows="1" fold="1" page="1" pageScale="1" pageWidth="1100" pageHeight="850" background="none" math="0" shadow="0">
      <root>
        <mxCell id="0" />
        <mxCell id="1" parent="0" />
        <mxCell id="57fe6abec08f04cb-1" value="&lt;div&gt;&lt;font style=&quot;font-size: 18px;&quot;&gt;Decentralized Application&lt;/font&gt;&lt;/div&gt;&lt;div&gt;&lt;font style=&quot;font-size: 18px;&quot;&gt;&amp;nbsp;(DApp)&lt;/font&gt;&lt;br&gt;&lt;/div&gt;" style="shape=step;whiteSpace=wrap;html=1;fontSize=28;fillColor=#0080FF;fontColor=#FFFFFF;strokeColor=none;size=0.09375;" parent="1" vertex="1">
          <mxGeometry x="90" y="180" width="250" height="80" as="geometry" />
        </mxCell>
        <mxCell id="57fe6abec08f04cb-7" value="&lt;font style=&quot;font-size: 24px;&quot;&gt;AgriLedger Strategy Flow With AWS Services&lt;/font&gt;" style="text;html=1;strokeColor=none;fillColor=#61BAFF;align=center;verticalAlign=middle;whiteSpace=wrap;fontSize=54;fontStyle=1;fontColor=#004D99;fillStyle=hatch;" parent="1" vertex="1">
          <mxGeometry x="90" y="90" width="970" height="80" as="geometry" />
        </mxCell>
        <mxCell id="57fe6abec08f04cb-10" value="&lt;div&gt;Frontend Hosting: AWS S3 for hosting static files of the React.js application.&lt;/div&gt;Content Delivery Network (CDN): AWS CloudFront for fast and secure delivery of the application globally." style="text;spacingTop=-5;fillColor=#ffffff;whiteSpace=wrap;html=1;align=left;fontSize=12;fontFamily=Helvetica;fillColor=none;strokeColor=none;" parent="1" vertex="1">
          <mxGeometry x="100" y="260" width="210" height="80" as="geometry" />
        </mxCell>
        <mxCell id="HsDY-WcBs77t88ZkJVtQ-6" value="&lt;div&gt;&lt;font style=&quot;font-size: 18px;&quot;&gt;Authentication&lt;/font&gt;&lt;br&gt;&lt;/div&gt;" style="shape=step;whiteSpace=wrap;html=1;fontSize=28;fillColor=#0080FF;fontColor=#FFFFFF;strokeColor=none;size=0.09375;" vertex="1" parent="1">
          <mxGeometry x="330" y="180" width="250" height="80" as="geometry" />
        </mxCell>
        <mxCell id="HsDY-WcBs77t88ZkJVtQ-7" value="&lt;font style=&quot;font-size: 18px;&quot;&gt;&lt;br&gt;Smart Contracts on &lt;br&gt;Solana&lt;/font&gt;&lt;div&gt;&lt;span style=&quot;font-size: 18px; background-color: initial;&quot;&gt;&amp;nbsp;&lt;/span&gt;&lt;br&gt;&lt;/div&gt;" style="shape=step;whiteSpace=wrap;html=1;fontSize=28;fillColor=#0080FF;fontColor=#FFFFFF;strokeColor=none;size=0.09375;" vertex="1" parent="1">
          <mxGeometry x="570" y="180" width="250" height="80" as="geometry" />
        </mxCell>
        <mxCell id="HsDY-WcBs77t88ZkJVtQ-8" value="&lt;div&gt;&lt;font style=&quot;font-size: 18px;&quot;&gt;Realtime Pricing and Market Analysis&lt;/font&gt;&lt;br&gt;&lt;/div&gt;" style="shape=step;whiteSpace=wrap;html=1;fontSize=28;fillColor=#0080FF;fontColor=#FFFFFF;strokeColor=none;size=0.09375;" vertex="1" parent="1">
          <mxGeometry x="810" y="180" width="250" height="80" as="geometry" />
        </mxCell>
        <mxCell id="HsDY-WcBs77t88ZkJVtQ-9" value="&lt;div&gt;&lt;span style=&quot;background-color: initial;&quot;&gt;Solana Encryption Key validation&lt;/span&gt;&lt;/div&gt;&lt;div&gt;&lt;span style=&quot;background-color: initial;&quot;&gt;Authorization: AWS Identity and Access Management (IAM) for fine-grained access control.&lt;/span&gt;&lt;br&gt;&lt;/div&gt;&lt;div&gt;&lt;/div&gt;" style="text;spacingTop=-5;fillColor=#ffffff;whiteSpace=wrap;html=1;align=left;fontSize=12;fontFamily=Helvetica;fillColor=none;strokeColor=none;" vertex="1" parent="1">
          <mxGeometry x="330" y="260" width="220" height="80" as="geometry" />
        </mxCell>
        <mxCell id="HsDY-WcBs77t88ZkJVtQ-10" value="&lt;div&gt;Blockchain Infrastructure: Solana&#39;s mainnet or a custom Solana cluster.&lt;/div&gt;&lt;div&gt;Deployment: Utilize AWS CloudFormation for infrastructure as code (IaC) to deploy and manage the Solana smart contracts.&lt;/div&gt;&lt;div&gt;&lt;/div&gt;" style="text;spacingTop=-5;fillColor=default;whiteSpace=wrap;html=1;align=left;fontSize=12;fontFamily=Helvetica;fillColor=none;strokeColor=none;" vertex="1" parent="1">
          <mxGeometry x="570" y="260" width="220" height="80" as="geometry" />
        </mxCell>
        <mxCell id="HsDY-WcBs77t88ZkJVtQ-11" value="&lt;div&gt;Data Storage: Amazon DynamoDB for storing real-time market data.&lt;/div&gt;&lt;div&gt;Event-Driven Architecture: Use Amazon EventBridge to trigger updates to the smart contracts based on market events.&lt;/div&gt;&lt;div&gt;Investment Opportunities:&lt;/div&gt;&lt;div&gt;&lt;/div&gt;" style="text;spacingTop=-5;fillColor=#ffffff;whiteSpace=wrap;html=1;align=left;fontSize=12;fontFamily=Helvetica;fillColor=none;strokeColor=none;" vertex="1" parent="1">
          <mxGeometry x="820" y="260" width="220" height="80" as="geometry" />
        </mxCell>
        <mxCell id="HsDY-WcBs77t88ZkJVtQ-13" value="&lt;div&gt;&lt;font style=&quot;font-size: 18px;&quot;&gt;Blockchain Transactions&lt;/font&gt;&lt;br&gt;&lt;/div&gt;" style="shape=step;whiteSpace=wrap;html=1;fontSize=28;fillColor=#0080FF;fontColor=#FFFFFF;strokeColor=none;size=0.09375;" vertex="1" parent="1">
          <mxGeometry x="90" y="370" width="250" height="80" as="geometry" />
        </mxCell>
        <mxCell id="HsDY-WcBs77t88ZkJVtQ-14" value="&lt;div&gt;Leverage Solana&#39;s native token (SOL) for payments.&lt;/div&gt;&lt;div&gt;AWS Key Management Service (KMS): Securely manage cryptographic keys for transaction authorization.&lt;/div&gt;&lt;div&gt;&lt;/div&gt;" style="text;spacingTop=-5;fillColor=#ffffff;whiteSpace=wrap;html=1;align=left;fontSize=12;fontFamily=Helvetica;fillColor=none;strokeColor=none;" vertex="1" parent="1">
          <mxGeometry x="100" y="450" width="210" height="80" as="geometry" />
        </mxCell>
        <mxCell id="HsDY-WcBs77t88ZkJVtQ-15" value="&lt;div&gt;&lt;span style=&quot;font-size: 18px;&quot;&gt;Database&lt;/span&gt;&lt;/div&gt;" style="shape=step;whiteSpace=wrap;html=1;fontSize=28;fillColor=#0080FF;fontColor=#FFFFFF;strokeColor=none;size=0.09375;" vertex="1" parent="1">
          <mxGeometry x="330" y="370" width="250" height="80" as="geometry" />
        </mxCell>
        <mxCell id="HsDY-WcBs77t88ZkJVtQ-16" value="&lt;div&gt;Amazon Aurora for relational data storage.&lt;/div&gt;&lt;div&gt;AWS Lambda: Execute serverless functions for handling investment-related logic.&lt;/div&gt;&lt;div&gt;&lt;/div&gt;" style="text;spacingTop=-5;fillColor=#ffffff;whiteSpace=wrap;html=1;align=left;fontSize=12;fontFamily=Helvetica;fillColor=none;strokeColor=none;" vertex="1" parent="1">
          <mxGeometry x="330" y="460" width="210" height="80" as="geometry" />
        </mxCell>
        <mxCell id="HsDY-WcBs77t88ZkJVtQ-17" value="&lt;div&gt;&lt;font style=&quot;font-size: 18px;&quot;&gt;Payment and Settlement:&lt;/font&gt;&lt;br&gt;&lt;/div&gt;" style="shape=step;whiteSpace=wrap;html=1;fontSize=28;fillColor=#0080FF;fontColor=#FFFFFF;strokeColor=none;size=0.09375;" vertex="1" parent="1">
          <mxGeometry x="570" y="370" width="250" height="80" as="geometry" />
        </mxCell>
        <mxCell id="HsDY-WcBs77t88ZkJVtQ-18" value="&lt;div&gt;Blockchain Transactions: Leverage Solana&#39;s native token (SOL) for payments.&lt;/div&gt;&lt;div&gt;AWS Key Management Service (KMS): Securely manage cryptographic keys for transaction authorization.&lt;/div&gt;&lt;div&gt;&lt;/div&gt;" style="text;spacingTop=-5;fillColor=#ffffff;whiteSpace=wrap;html=1;align=left;fontSize=12;fontFamily=Helvetica;fillColor=none;strokeColor=none;" vertex="1" parent="1">
          <mxGeometry x="580" y="450" width="210" height="80" as="geometry" />
        </mxCell>
        <mxCell id="HsDY-WcBs77t88ZkJVtQ-19" value="&lt;div&gt;&lt;font style=&quot;font-size: 18px;&quot;&gt;AWS IoT&lt;/font&gt;&lt;br&gt;&lt;/div&gt;" style="shape=step;whiteSpace=wrap;html=1;fontSize=28;fillColor=#0080FF;fontColor=#FFFFFF;strokeColor=none;size=0.09375;" vertex="1" parent="1">
          <mxGeometry x="810" y="370" width="250" height="80" as="geometry" />
        </mxCell>
        <mxCell id="HsDY-WcBs77t88ZkJVtQ-20" value="&amp;nbsp;Integrate with AWS IoT for tracking and monitoring physical assets in the supply chain.&lt;div&gt;&lt;/div&gt;" style="text;spacingTop=-5;fillColor=#ffffff;whiteSpace=wrap;html=1;align=left;fontSize=12;fontFamily=Helvetica;fillColor=none;strokeColor=none;" vertex="1" parent="1">
          <mxGeometry x="820" y="450" width="210" height="80" as="geometry" />
        </mxCell>
      </root>
    </mxGraphModel>
  </diagram>
</mxfile>
